<svg width="264" height="242" viewBox="0 0 264 242" fill="none" xmlns="http://www.w3.org/2000/svg">
    <g clip-path="url(#clip0_0_926)">
        <rect width="264" height="242" fill="#F7F7F7"/>
        <path fill-rule="evenodd" clip-rule="evenodd" d="M161.239 124.152C161.219 122.387 160.803 120.645 160.155 119.008C159.654 117.741 159.073 116.507 158.506 115.268C153.991 105.502 149.253 95.8392 144.296 86.2869C143.598 84.9522 142.916 83.6094 142.18 82.2954C141.456 81.0135 140.613 79.7795 139.523 78.7762C137.783 77.1297 135.448 76.1481 133.052 76H131.949C129.482 76.1209 127.074 77.1484 125.304 78.8608C124.254 79.8485 123.441 81.0528 122.736 82.2989C122.01 83.5913 121.337 84.9129 120.653 86.2265C117.326 92.6353 114.098 99.0938 110.968 105.6C109.103 109.493 107.253 113.393 105.474 117.325C104.736 118.963 104.069 120.656 103.818 122.444C103.352 125.463 104.02 128.632 105.645 131.224C107.045 133.476 109.148 135.291 111.598 136.339C113.514 137.16 115.596 137.526 117.679 137.407C120.461 137.261 123.144 136.269 125.498 134.821C128.124 133.221 130.37 131.093 132.462 128.866C134.406 130.946 136.487 132.931 138.89 134.487C141.21 136.002 143.855 137.099 146.638 137.36C149.659 137.673 152.79 136.93 155.327 135.26C157.57 133.785 159.307 131.666 160.307 129.187C160.951 127.586 161.268 125.875 161.239 124.152ZM132.474 122.988C131.716 122.101 131.047 121.142 130.376 120.19C129.246 118.546 128.219 116.827 127.393 115.011C126.716 113.504 126.173 111.922 125.961 110.279C125.806 108.975 125.843 107.615 126.325 106.378C126.756 105.217 127.586 104.212 128.636 103.548C131.139 101.945 134.706 102.118 136.974 104.062C138.122 105.033 138.807 106.468 138.98 107.943C139.206 109.903 138.757 111.872 138.067 113.7C136.765 117.093 134.704 120.134 132.474 122.988ZM157.032 127.146C156.363 129.437 154.755 131.438 152.652 132.593C150.788 133.628 148.562 133.983 146.46 133.634C143.784 133.221 141.382 131.811 139.301 130.147C137.771 128.927 136.394 127.533 135.075 126.096C137.158 123.481 139.12 120.745 140.619 117.754C141.927 115.135 142.921 112.297 143.016 109.352C143.069 107.484 142.715 105.581 141.835 103.917C140.684 101.695 138.621 99.9873 136.256 99.1612C134.047 98.378 131.592 98.308 129.338 98.9457C127.213 99.5425 125.272 100.81 123.942 102.568C122.771 104.1 122.104 105.983 121.949 107.894C121.711 110.645 122.406 113.39 123.457 115.92C125.019 119.616 127.313 122.961 129.845 126.064C128.703 127.373 127.464 128.596 126.138 129.721C124.082 131.448 121.729 132.951 119.064 133.524C116.909 134.004 114.584 133.765 112.608 132.773C110.294 131.628 108.517 129.472 107.846 126.993C107.334 125.172 107.448 123.206 108.057 121.423C108.564 119.947 109.252 118.541 109.895 117.121C114.362 107.46 119.047 97.9005 123.946 88.4487C124.677 87.0419 125.396 85.6287 126.17 84.2451C126.801 83.1305 127.535 82.036 128.573 81.2533C129.695 80.3857 131.083 79.9264 132.505 79.9523C133.967 79.9352 135.42 80.4696 136.538 81.4019C137.642 82.312 138.388 83.5571 139.058 84.7981C140.572 87.6212 142.026 90.477 143.481 93.3298C147.633 101.487 151.623 109.724 155.448 118.037C156.026 119.328 156.645 120.61 157.034 121.972C157.509 123.653 157.525 125.468 157.032 127.146ZM110.806 145.022C112.056 144.741 113.422 145.56 113.747 146.792C114.151 148.052 113.349 149.518 112.072 149.883C110.825 150.318 109.343 149.561 108.93 148.325C108.539 147.284 108.958 146.027 109.888 145.411C110.166 145.223 110.478 145.091 110.806 145.022ZM119.251 153.16C120.004 152.348 121.065 151.839 122.158 151.676C122.887 151.606 123.623 151.652 124.338 151.813C124.329 152.957 124.336 154.1 124.334 155.244C123.213 154.956 121.999 154.897 120.899 155.299C120.301 155.515 119.763 155.866 119.326 156.325C119.231 156.405 119.254 156.534 119.245 156.646C119.252 159.841 119.24 163.038 119.25 166.233C119.239 166.356 119.269 166.494 119.214 166.61C117.971 166.638 116.726 166.615 115.482 166.62C115.483 161.748 115.478 156.875 115.485 152.003C116.533 152.007 117.58 151.999 118.628 152.005C118.859 151.992 119.104 152.109 119.189 152.332C119.271 152.599 119.245 152.884 119.251 153.16ZM146.059 153.173C147.054 152.151 148.496 151.649 149.912 151.646C151.407 151.608 152.94 152.047 154.095 153.01C154.864 153.608 155.418 154.436 155.676 155.371C156.005 156.51 155.975 157.706 155.971 158.879C155.972 161.46 155.971 164.041 155.972 166.622C154.718 166.62 153.465 166.63 152.211 166.617C152.212 164.037 152.211 161.458 152.212 158.878C152.212 157.919 152.258 156.885 151.744 156.032C151.386 155.419 150.678 155.114 149.996 155.043C148.696 154.836 147.338 155.35 146.442 156.29C146.346 156.385 146.265 156.505 146.275 156.648C146.263 157.047 146.324 157.447 146.289 157.847C146.24 158.389 146.317 158.932 146.299 159.476C146.283 160.501 146.282 161.527 146.295 162.553C146.224 163.909 146.348 165.27 146.266 166.625C145.017 166.621 143.769 166.624 142.521 166.623C142.52 161.749 142.511 156.875 142.525 152.001C143.491 152.009 144.459 152.001 145.424 152.004C145.673 151.989 145.946 152.127 146.011 152.379C146.07 152.638 146.052 152.907 146.059 153.173ZM109.431 166.623C109.43 161.749 109.423 156.875 109.433 152.002C110.678 152.005 111.921 152.004 113.165 152.003C113.175 156.876 113.168 161.75 113.169 166.622C111.923 166.622 110.677 166.621 109.431 166.623ZM107.113 152.003C106.127 152.001 105.141 152.006 104.154 151.998C103.893 151.996 103.56 152.009 103.433 152.281C103.319 152.56 103.363 152.871 103.352 153.165C102.532 152.298 101.375 151.783 100.189 151.671C98.3569 151.508 96.4585 152.012 94.9874 153.116C93.7756 154.005 92.8799 155.29 92.411 156.705C92.1852 157.368 92.0721 158.064 92 158.76V159.761C92.105 161.856 93.0438 163.928 94.6814 165.278C95.9166 166.317 97.5039 166.897 99.112 166.998H99.9504C101.225 166.913 102.484 166.39 103.353 165.447C103.361 165.742 103.319 166.056 103.431 166.339C103.547 166.568 103.821 166.631 104.059 166.622C105.077 166.619 106.096 166.623 107.114 166.617C107.114 161.747 107.117 156.875 107.113 152.003ZM103.237 162.068C102.476 162.973 101.287 163.508 100.1 163.47C98.8268 163.48 97.5059 162.996 96.6813 162.005C95.877 161.059 95.6339 159.744 95.8166 158.541C95.9531 157.568 96.4529 156.635 97.2426 156.031C97.9586 155.47 98.8613 155.181 99.7651 155.118C101.111 155.002 102.531 155.591 103.341 156.67C103.386 158.258 103.342 159.851 103.362 161.442C103.349 161.652 103.407 161.904 103.237 162.068ZM140.371 156.185C139.791 154.778 138.763 153.556 137.46 152.758C136.118 151.929 134.508 151.554 132.935 151.66C131.692 151.741 130.478 152.268 129.615 153.167C129.61 150.437 129.615 147.708 129.612 144.978C128.358 144.978 127.102 144.972 125.848 144.981C125.855 152.193 125.837 159.408 125.857 166.619C126.896 166.621 127.936 166.624 128.975 166.621C129.233 166.641 129.512 166.5 129.583 166.241C129.634 165.977 129.615 165.705 129.617 165.437C130.489 166.4 131.77 166.922 133.057 166.999H133.826C135.911 166.895 137.955 165.925 139.264 164.299C141.097 162.068 141.455 158.825 140.371 156.185ZM135.984 162.337C135.144 163.111 133.981 163.482 132.845 163.471C131.66 163.498 130.476 162.958 129.725 162.048C129.633 161.953 129.602 161.825 129.61 161.699C129.611 160.026 129.612 158.354 129.61 156.681C130.33 155.749 131.484 155.167 132.664 155.107C133.86 155.073 135.115 155.421 135.993 156.258C136.829 157.028 137.237 158.183 137.21 159.302C137.235 160.419 136.816 161.566 135.984 162.337ZM171.322 154.376C169.727 152.359 166.999 151.342 164.456 151.719C163.394 151.885 162.388 152.391 161.646 153.167C161.638 150.438 161.646 147.709 161.642 144.979C160.389 144.978 159.138 144.977 157.886 144.98C157.885 152.192 157.886 159.406 157.886 166.619C158.873 166.627 159.863 166.618 160.85 166.627C161.109 166.631 161.434 166.61 161.566 166.347C161.682 166.063 161.639 165.746 161.647 165.448C162.512 166.389 163.765 166.908 165.032 167H165.878C167.94 166.889 169.956 165.933 171.262 164.332C172.329 163.054 172.905 161.418 173 159.771V158.793C172.882 157.203 172.341 155.623 171.322 154.376ZM168.391 161.917C167.398 163.186 165.646 163.658 164.092 163.411C163.145 163.224 162.227 162.717 161.667 161.925C161.605 161.311 161.661 160.69 161.643 160.073C161.656 158.938 161.614 157.8 161.661 156.667C162.231 155.888 163.142 155.388 164.08 155.182C165.815 154.864 167.833 155.546 168.71 157.137C169.509 158.609 169.43 160.576 168.391 161.917Z" fill="#7B7B7B"/>
    </g>
    <defs>
        <clipPath id="clip0_0_926">
            <rect width="264" height="242" fill="white"/>
        </clipPath>
    </defs>
</svg>
