<svg width="264" height="242" viewBox="0 0 264 242" fill="none" xmlns="http://www.w3.org/2000/svg">
    <g clip-path="url(#clip0_0_867)">
        <rect width="264" height="242" fill="#F7F7F7"/>
        <path fill-rule="evenodd" clip-rule="evenodd" d="M98.3783 108.995C98.3823 111.912 97.2304 114.711 95.1768 116.773C93.1231 118.836 90.3366 119.993 87.4323 119.989C81.3746 119.989 76.4864 115.078 76.4864 108.995C76.4864 102.911 81.3755 98 87.4323 98C90.3366 97.9959 93.1231 99.153 95.1768 101.216C97.2304 103.279 98.3823 106.077 98.3783 108.995ZM74.9981 108.995C74.9981 115.079 70.0037 119.989 63.9459 119.989C57.9944 119.989 53 115.078 53 108.995C53 102.911 57.9944 98 63.9459 98C70.0037 98 74.9981 102.91 74.9981 108.995ZM63.9459 143.58C70.0037 143.58 74.9981 138.67 74.9981 132.585C74.9981 126.5 70.0037 121.591 63.9459 121.591C57.9944 121.591 53 126.5 53 132.585C53 138.669 57.9944 143.58 63.9459 143.58ZM98.3783 132.585C98.3823 135.503 97.2304 138.301 95.1768 140.364C93.1231 142.427 90.3366 143.584 87.4323 143.58C84.5281 143.584 81.7415 142.427 79.6879 140.364C77.6343 138.301 76.4823 135.503 76.4864 132.585C76.4823 129.668 77.6343 126.869 79.6879 124.807C81.7415 122.744 84.5281 121.587 87.4323 121.591C90.3367 121.586 93.1233 122.743 95.177 124.806C97.2307 126.869 98.3826 129.668 98.3783 132.585ZM178.402 99.6008C180.526 99.6008 182.653 100.134 183.823 100.669L183.715 103.871C182.015 103.018 180.422 102.483 178.403 102.483C176.595 102.483 175.002 103.017 175.002 104.512C175.002 106.241 176.897 106.906 179.027 107.654C181.762 108.614 184.886 109.71 184.886 113.371C184.886 117 181.91 119.242 177.447 119.242C174.471 119.242 172.451 118.388 170.963 117.534L172.345 114.865C173.515 115.612 175.428 116.359 177.552 116.359C179.571 116.359 181.379 115.612 181.379 113.904C181.379 112.054 179.449 111.385 177.303 110.64C174.62 109.71 171.602 108.662 171.602 105.044C171.601 101.523 174.363 99.6008 178.402 99.6008ZM107.199 119.028V99.7075H114.213C115.701 99.7075 116.658 100.028 117.508 100.348C119.421 101.308 120.27 103.123 120.27 104.724C120.27 106.539 119.526 107.82 118.038 108.78C120.27 109.314 121.546 110.809 121.546 113.157C121.546 115.825 119.951 117.746 117.294 118.601C116.338 118.921 115.276 119.028 113.681 119.028H107.199ZM115.807 103.017C115.276 102.803 114.744 102.696 114 102.696H110.387V107.713H113.787C114.744 107.713 115.382 107.606 115.913 107.286C116.644 106.877 117.093 106.098 117.082 105.258C117.082 104.298 116.551 103.443 115.807 103.017ZM114.638 110.702C115.701 110.702 116.339 110.809 116.764 111.022C117.72 111.45 118.145 112.196 118.145 113.263C118.145 114.33 117.72 115.185 116.764 115.612C116.233 115.825 115.594 116.039 114.319 116.039H110.388V110.702H114.638ZM140.675 119.029V99.7075H143.97V119.029H140.675ZM164.586 99.7075V119.029H167.881V99.7075H164.586ZM200.4 110.703V119.029H203.694V99.7075H200.4V107.607H191.153V99.7075H187.86V119.029H191.153V110.703H200.4ZM114.426 122.338C116.444 122.338 118.039 122.765 119.739 123.512L118.783 126.287C117.826 125.86 116.551 125.327 114.744 125.327C111.131 125.327 108.899 128.423 108.899 132.159C108.899 136.002 111.025 139.097 114.744 139.097C116.551 139.097 117.826 138.563 118.783 138.137L119.739 140.911C118.038 141.658 116.444 142.086 114.426 142.086C108.687 142.086 105.392 138.03 105.392 132.265C105.392 126.821 108.687 122.338 114.426 122.338ZM191.579 123.512C189.987 122.765 188.391 122.338 186.267 122.338C180.527 122.338 177.233 126.821 177.234 132.265C177.234 138.03 180.527 142.086 186.267 142.086C188.391 142.086 189.986 141.658 191.579 140.911L190.623 138.137C189.667 138.563 188.392 139.097 186.586 139.097C182.866 139.097 180.741 136.002 180.741 132.159C180.741 128.423 182.972 125.327 186.586 125.327C188.391 125.327 189.667 125.86 190.623 126.287L191.579 123.512ZM138.442 132.158C138.442 137.922 134.83 142.086 129.41 142.086C123.99 142.086 120.376 138.03 120.376 132.265C120.376 126.501 123.99 122.338 129.41 122.338C134.936 122.338 138.442 126.394 138.442 132.158ZM129.41 125.326C132.599 125.326 135.042 127.995 135.042 132.158C135.042 136.428 132.599 139.096 129.41 139.096C126.223 139.096 123.778 136.428 123.778 132.264C123.778 127.995 126.222 125.326 129.41 125.326ZM140.675 134.506V122.551H143.97V134.613C143.97 137.922 145.671 139.096 148.433 139.096C151.195 139.096 152.896 137.922 152.896 134.613V122.551H156.19V134.506C156.19 139.737 153.214 142.086 148.433 142.086C143.65 142.086 140.675 139.737 140.675 134.506ZM162.249 127.781H162.354L171.919 141.765H174.789V122.551H171.494V133.119C171.494 133.973 171.494 135.041 171.601 135.681H171.494L162.674 122.551H159.06V141.765H162.354V130.343C162.354 129.49 162.354 128.422 162.249 127.781ZM194.131 141.765V122.551H197.425V141.765H194.131ZM200.4 122.551V141.765H211.24V138.777H203.694V122.551H200.4ZM162.036 99.8151H146.52V102.803H152.684V119.029H155.979V102.803H162.036V99.8151ZM134.762 118.882L134.831 119.029H138.551C135.363 112.624 134.406 110.809 133.555 110.275C135.681 109.635 137.063 107.927 137.063 105.259C137.063 102.377 135.255 99.8151 130.261 99.8151H123.778V119.029H127.072V111.557H130.154C131.313 111.557 132.054 113.131 134.762 118.882ZM130.472 102.696H127.072V108.568H130.366C132.704 108.568 133.766 107.394 133.766 105.579C133.767 103.978 132.811 102.696 130.472 102.696Z" fill="#7B7B7B"/>
    </g>
    <defs>
        <clipPath id="clip0_0_867">
            <rect width="264" height="242" fill="white"/>
        </clipPath>
    </defs>
</svg>
