<svg width="264" height="242" viewBox="0 0 264 242" fill="none" xmlns="http://www.w3.org/2000/svg">
    <g clip-path="url(#clip0_0_855)">
        <rect width="264" height="242" fill="#F7F7F7"/>
        <path fill-rule="evenodd" clip-rule="evenodd" d="M73.1148 126.768C75.3727 130.457 79.5132 132.933 84.121 132.933C90.9295 132.933 94.6781 127.076 94.6781 127.076L95.1604 128.637C92.0079 132.723 86.3767 135.184 80.077 135.184C72.8231 135.184 66.5679 131.735 63.6889 126.762C62.6052 124.888 62 122.795 62 120.592C62 112.533 70.0927 106 80.077 106C87.1311 106 92.8098 109.012 95.792 113.376L83.9552 120.441L90.7109 110.102C88.7778 108.891 86.4068 107.756 83.9552 107.756C77.0254 107.756 71.3181 113.52 71.3181 120.427C71.3181 122.742 71.9775 124.916 73.1148 126.768ZM104.295 126.506C104.26 126.737 104.242 126.974 104.242 127.215C104.242 129.825 106.36 131.941 108.975 131.941C111.589 131.941 113.707 129.825 113.707 127.215C113.707 126.974 113.69 126.737 113.654 126.503C113.312 124.232 111.347 122.488 108.975 122.488C106.602 122.488 104.637 124.232 104.295 126.506ZM121.856 126.503L124.208 134.416H115.957L114.334 128.997C113.248 132.119 109.582 134.416 105.227 134.416C100.016 134.416 95.792 131.129 95.792 127.074C95.792 126.884 95.801 126.696 95.819 126.503C96.1904 122.719 100.26 119.732 105.227 119.732C108.046 119.732 110.576 120.694 112.305 122.219L110.057 114.715H100.588C100.588 114.715 102.163 113.771 109.15 111.232C116.137 108.694 118.352 114.715 118.352 114.715L121.856 126.503ZM148.016 134.416V126.498V114.732C147.952 112.444 146.08 110.608 143.779 110.608C141.982 110.608 139.526 111.988 136.929 113.447C136.31 113.795 135.683 114.147 135.055 114.487C134.849 112.313 133.208 110.608 130.99 110.608C128.651 110.608 121.904 114.701 121.904 114.701H126.754V134.416H135.07V116.177C135.407 115.314 136.246 114.701 137.228 114.701C138.507 114.701 139.542 115.739 139.542 117.019V134.416H148.016ZM161.471 126.746L162.657 130.671C162.68 132.353 164.062 133.699 165.759 133.699C167.494 133.699 168.9 132.293 168.9 130.559C168.9 130.436 168.892 130.315 168.878 130.196L164.324 114.63C164.15 113.061 162.819 111.841 161.203 111.841C159.603 111.841 158.077 113.335 157.883 114.883L161.471 126.746ZM175.048 126.748C173.433 131.648 168.818 135.184 163.376 135.184C157.935 135.184 153.32 131.648 151.704 126.746C151.305 125.536 151.088 124.242 151.088 122.896C151.088 116.109 156.59 110.608 163.376 110.608C170.163 110.608 175.664 116.109 175.664 122.896C175.664 124.242 175.448 125.536 175.048 126.748ZM188.731 134.416V126.498V116.177C189.07 115.314 189.916 114.701 190.905 114.701C192.194 114.701 193.237 115.739 193.237 117.019V134.416H201.776V114.732C201.712 112.444 199.825 110.608 197.507 110.608C195.696 110.608 193.223 111.987 190.608 113.445C189.983 113.794 189.349 114.147 188.715 114.487C188.508 112.313 186.854 110.608 184.62 110.608C182.262 110.608 175.664 114.701 175.664 114.701H180.351V134.416H188.731Z" fill="#7B7B7B"/>
    </g>
    <defs>
        <clipPath id="clip0_0_855">
            <rect width="264" height="242" fill="white"/>
        </clipPath>
    </defs>
</svg>
