<svg width="264" height="242" viewBox="0 0 264 242" fill="none" xmlns="http://www.w3.org/2000/svg">
    <g clip-path="url(#clip0_0_942)">
        <rect width="264" height="242" fill="#F7F7F7"/>
        <path fill-rule="evenodd" clip-rule="evenodd" d="M200.936 101.737C197.484 103.729 193.906 105.019 189.574 104.57C188.374 105.945 187.205 107.362 186.128 108.821C192.207 110.392 198.653 106.899 202.247 103.575C206.05 100.222 208 96 208 96C208 96 205.15 99.3102 200.936 101.737ZM150.365 121.811C149.905 120.801 148.813 120.155 147.65 120.225C143.873 120.576 140.179 123.732 138.239 128.263C137.221 130.592 136.665 132.514 136.301 135.572C137.475 134.197 139.871 131.939 142.59 130.704C142.59 130.704 142.96 127.773 144.846 125.163C145.56 124.083 146.988 122.344 148.592 122.806C149.994 123.283 149.501 127.225 147.639 131.04C146.26 133.846 144.151 136.652 142.018 138.588C140.131 140.215 137.34 142.179 134.898 140.664C133.359 139.739 132.575 137.802 132.74 135.305C133.475 128.221 136.649 122.189 141.191 115.316C145.873 108.933 151.035 102.382 157.989 98.8889C159.408 98.1596 160.721 97.9913 161.857 98.4402C161.857 98.4402 155.329 102.087 152.217 108.835L152.183 108.91C151.394 110.614 150.341 112.89 151.433 114.909C152.013 115.975 153.041 116.059 153.869 116.003C157.684 115.105 160.148 111.486 162.161 108.176C163.329 105.665 164.366 103.168 164.366 100.39C164.366 100.054 164.349 99.6049 164.321 99.2679C166.143 98.2863 169.88 100.025 169.88 100.025C171.596 100.603 174.452 102.513 176.94 104.177L176.94 104.177L176.94 104.178C178.685 105.345 180.25 106.391 181.115 106.773C182.138 105.567 183.819 103.743 184.765 102.831L183.395 101.975C181.293 100.672 179.075 99.4318 176.886 98.2075L176.885 98.2073L176.6 98.0477C171.416 95.1723 167.197 96.1821 165.049 96.9678C164.205 97.2762 163.434 97.5428 163.434 97.5428C161.841 95.7754 159.227 95.9433 157.301 96.4205C150.375 98.4404 143.945 103.364 137.051 111.907C131.983 118.599 128.839 124.378 127.163 130.087C125.871 133.931 125.479 139.584 128.631 142.937C131.312 145.784 134.866 145.167 137.376 144.143C142.814 141.422 147.701 135.558 150.136 128.81C150.724 126.805 151.376 123.971 150.365 121.811ZM77.8527 116.564C82.4595 110.308 88.2112 106.661 91.0728 108.569C93.7166 110.526 91.687 115.444 91.0333 117.028C90.9657 117.192 90.9128 117.32 90.8814 117.406C91.9079 117.673 95.1912 115.288 97.1056 113.142C98.6262 111.43 101.231 109.228 102.877 108.597C104.106 107.993 106.006 107.797 107.251 108.554C108.087 109.046 108.647 110.056 108.705 111.122C108.87 114.096 105.465 118.978 103.758 116.509C103.406 115.442 103.79 114.306 104.896 113.128C105.457 112.538 106.147 112.272 107.009 112.3C107.348 111.753 107.262 110.954 106.725 110.631C106.162 110.28 105.026 110.519 103.982 111.347C100.283 114.335 97.032 119.287 95.1454 124.744C94.8113 125.768 94.6291 127.327 95.2214 128.393C96.8417 130.931 100.634 127.398 100.634 127.398C103.194 125.084 105.663 121.877 107.602 119.029C112.638 111.623 119.328 105.236 122.282 109.389C122.306 109.42 122.335 109.468 122.362 109.513C122.395 109.568 122.426 109.619 122.443 109.634C122.486 109.578 123.007 108.722 123.007 108.722H127.775C127.775 108.722 117.676 126.519 117.663 126.547C117.453 126.981 117.319 127.594 117.659 127.888C117.914 128.071 118.343 127.87 118.406 127.84L118.411 127.838L118.414 127.836C120.78 126.67 124.301 121.709 124.973 120.762L124.973 120.762C125.045 120.661 125.084 120.606 125.086 120.606H126.728C124.153 124.439 120.966 128.874 117.009 131.708C115.91 132.451 114.465 133.243 113.037 132.724C111.682 131.856 111.769 130.798 111.871 129.539C111.883 129.393 111.895 129.243 111.906 129.091C111.905 129.091 111.902 129.094 111.896 129.101L111.873 129.128C111.499 129.565 107.981 133.671 105.011 132.794C103.973 132.457 102.314 131.545 103.545 127.196C103.545 127.196 103.639 126.804 103.711 126.51C103.426 126.79 102.921 127.281 102.921 127.281C99.9597 130.227 96.603 133.538 92.3994 132.822C89.564 131.927 89.3456 129.183 89.2503 127.986C89.2396 127.851 89.2304 127.736 89.2192 127.645C88.8886 124.898 91.8892 119.55 92.3048 118.81C92.3348 118.756 92.3513 118.727 92.3522 118.724C91.4407 118.991 90.6318 119.187 89.9602 119.313C89.9084 119.397 88.8218 121.221 88.8218 121.221L88.7546 121.334C87.593 123.292 86.3882 125.322 84.8371 127.015L84.5372 127.338C82.2124 130.101 76.7454 135.263 73.8007 131.714C71.8209 128.698 73.64 122.176 77.8527 116.564ZM118.346 111.711C117.688 112.3 114.988 115.793 114.061 117.097C110.331 122.204 109.123 125.892 109.023 127.098C108.988 127.463 109.111 127.814 109.424 128.024C109.685 128.222 110.075 128.194 110.313 128.123C111.975 127.183 112.995 125.836 114.007 124.266C114.007 124.266 114.729 123.144 114.725 123.158C117.017 119.286 119.455 114.979 121.521 111.22C121.444 110.603 120.56 109.732 118.346 111.711ZM88.1217 119.356C88.1217 119.356 88.08 119.482 88.0597 119.524C88.0544 119.524 85.9807 122.96 85.9807 122.96L85.9509 123.001C84.7044 124.692 83.1512 126.799 81.2135 127.814C80.6346 128.01 79.8342 128.137 79.4263 127.618C78.5618 126.566 79.0074 125.107 79.3694 123.929L79.4976 123.508C80.5355 120.647 82.1822 118.121 83.7853 115.779C83.8053 115.765 83.8502 115.751 83.8664 115.751C83.8677 115.756 83.8694 115.759 83.8711 115.762C83.8743 115.768 83.8777 115.775 83.8794 115.793C84.8852 117.757 86.7713 118.668 88.1817 119.089C88.1902 119.089 88.1995 119.103 88.1995 119.132C88.1996 119.173 88.1766 119.23 88.1217 119.356ZM89.1627 117.462C89.1627 117.462 90.077 115.33 90.0862 115.302C90.4003 114.348 90.6773 113.324 90.6771 112.413C90.6771 111.739 90.5256 111.122 90.1259 110.645C89.4777 110.126 88.3615 110.392 87.6435 110.897C86.8954 111.472 85.197 113.057 85.6104 115.078C85.9101 116.115 86.8824 116.985 88.1713 117.392L88.5818 117.462L88.6137 117.47C88.8399 117.523 89.0363 117.569 89.1627 117.462ZM154.144 114.376C155.732 113.984 162.149 109.06 162.869 100.671C162.897 100.362 162.9 100.138 162.803 99.7873C158.849 101.85 155.164 105.875 153.006 110.617C151.54 114.138 153.182 114.572 154.144 114.376ZM131.171 108.722H135.699L133.144 112.939H128.617L131.171 108.722ZM114.478 139.616C108.812 135.956 101.122 135.314 88.7198 138.764C86.8288 139.21 85.1181 139.632 83.5578 140.018C74.2092 142.328 70.2622 143.303 65.3009 139.868C63.0768 137.898 62.2794 134.727 62.8749 130.16C64.2559 122.714 67.988 115.548 74.6172 107.6C78.3174 103.465 81.7498 99.9167 86.282 98.4918C89.7555 97.5979 89.4308 100.335 89.0105 100.727C88.567 100.727 87.8219 100.797 87.2461 101.174C86.7788 101.537 85.496 102.71 85.4271 104.289C85.3277 106.705 87.8215 106.203 88.8972 104.876C90.0567 103.381 91.7702 100.518 90.4223 97.8491C89.8574 96.8993 88.8812 96.2429 87.6693 96.0194C83.5192 95.7816 79.6542 97.7653 76.087 99.9585C68.2859 105.392 62.0455 112.922 58.5144 121.164C56.4788 126.137 54.6377 133.26 57.3972 139.058C59.5323 143.081 63.9643 145.218 69.2521 144.771C72.3836 144.441 76.0682 143.533 78.9549 142.821L78.955 142.821C79.4871 142.69 79.9921 142.565 80.4615 142.452C80.7343 142.387 81.1088 142.283 81.568 142.157L81.5681 142.157C86.1862 140.882 99.376 137.242 103.99 145.666C103.99 145.666 105.677 142.382 109.893 142.312C113.359 141.992 118.359 143.318 122 146C120.787 144.171 117.348 141.475 114.478 139.616ZM188.671 140.207C188.183 140.54 187.497 140.284 187.753 139.52C188.392 137.574 190.93 133.61 190.93 133.61L198 121.015H193.157C192.927 121.395 192.435 122.267 192.435 122.267C192.211 121.892 191.541 121.059 191.265 120.878C190.082 120.127 188.346 120.483 187.149 121.163C182.009 124.182 178.241 130.108 175.263 134.792L175.148 134.974C175.148 134.974 171.994 140.211 170.244 140.6C168.877 140.711 169.018 138.862 169.077 138.431C169.606 135.318 170.833 132.358 172.069 129.676C174.584 127.925 177.454 125.632 180.062 123.117C185.722 117.683 190.493 111.527 191.19 110.151C191.19 110.151 190.436 110.304 189.544 110.331C185.19 116.432 176.279 125.299 173.578 126.619C174.775 123.727 182.507 109.928 189.086 103.327L190.122 102.327C191.723 100.756 193.381 99.1443 194.674 98.8801C194.811 98.8663 194.986 98.8801 195.138 99.2003C195.196 100.423 194.743 101.326 194.223 102.355L193.494 103.856C193.494 103.856 194.526 103.661 195.204 103.438C195.991 101.952 196.862 100.284 196.54 98.297C196.434 97.6576 195.973 97.1713 195.37 97.0601C193.408 96.6848 191.269 98.1436 189.547 99.3252L189.478 99.3666C180.63 106.329 173.159 116.363 166.627 130.065C166.153 130.426 164.324 130.857 164.013 130.648C164.658 129.315 165.47 127.521 165.877 125.576C165.947 125.02 166.012 124.45 166.012 123.895C166.012 122.699 165.727 121.573 164.66 120.795C163.409 120.17 161.863 120.462 160.821 120.934C156.152 122.88 152.662 127.688 150.144 131.648C148.789 134.164 147.439 136.859 147.065 139.945C146.802 142.362 147.338 143.919 148.706 144.697C150.114 145.42 151.885 144.669 152.581 144.308C157.311 141.806 160.617 136.79 163.222 132.204C163.238 132.202 163.288 132.199 163.364 132.194C163.768 132.171 164.919 132.105 165.824 131.87C165.838 131.87 165.844 131.87 165.868 131.885C165.806 132.093 165.25 133.761 165.25 133.761C163.599 138.624 162.836 141.932 164.395 143.891C166.624 146.657 170.314 143.794 173.316 140.014C172.671 144.544 175.009 145.253 176.791 144.906C178.838 144.35 181.119 142.154 182.177 141.029C181.837 142.349 181.929 144.712 183.792 144.947C184.887 145.151 185.746 144.666 186.666 144.146L186.666 144.146L186.668 144.146C186.819 144.06 186.972 143.974 187.128 143.889C191.092 141.721 195.838 134.497 197.07 132.408H195.454L195.263 132.699C193.541 135.316 191.373 138.612 188.671 140.207ZM153.087 139.723C152.836 139.348 152.752 138.938 152.744 138.494C152.696 135.769 155.615 130.889 157.675 128.231H157.679C158.543 130.13 160.498 131.35 161.678 131.865C160.212 135.145 155.185 142.169 153.087 139.723ZM159.424 127.369C159.901 129.662 162.366 130.496 162.506 130.398C163.296 129.015 163.906 127.534 164.319 125.993L164.331 125.896L164.336 125.853L164.336 125.853C164.388 125.434 164.445 124.978 164.445 124.534C164.445 123.784 164.289 123.089 163.712 122.699C163.091 122.478 162.245 122.63 161.683 123.075C160.373 123.853 159.02 125.395 159.424 127.369ZM182.28 138.848C182.278 138.848 181.812 139.265 181.812 139.265L181.768 139.304C181.117 139.89 180.444 140.494 179.636 140.181C179.408 140.098 179.248 139.793 179.209 139.556C179.172 137.852 179.933 136.273 180.674 134.736L180.681 134.72L180.872 134.317L180.983 134.13C183.096 130.586 185.558 126.456 189.144 123.575C189.759 123.13 190.426 122.755 191.131 123.047C191.293 123.2 191.481 123.464 191.481 123.728C191.481 123.811 191.407 124.034 191.365 124.103C190.463 125.567 189.599 127.095 188.758 128.582L188.758 128.582L188.431 129.162C186.586 132.455 184.672 135.859 182.28 138.848Z" fill="#7B7B7B"/>
    </g>
    <defs>
        <clipPath id="clip0_0_942">
            <rect width="264" height="242" fill="white"/>
        </clipPath>
    </defs>
</svg>
