<svg width="264" height="242" viewBox="0 0 264 242" fill="none" xmlns="http://www.w3.org/2000/svg">
    <g clip-path="url(#clip0_0_907)">
        <rect width="264" height="242" fill="#F7F7F7"/>
        <path fill-rule="evenodd" clip-rule="evenodd" d="M66.5655 120.566H50V104H66.5655V120.566ZM213.296 119.771V116.899H209.73V112.435L209.61 112.472L206.26 113.496L206.194 113.516V116.899H200.907V115.015C200.907 114.137 201.103 113.466 201.49 113.018C201.874 112.575 202.423 112.351 203.124 112.351C203.627 112.351 204.149 112.469 204.674 112.703L204.805 112.762V109.737L204.743 109.715C204.254 109.539 203.588 109.45 202.763 109.45C201.722 109.45 200.777 109.676 199.953 110.125C199.128 110.574 198.479 111.216 198.025 112.031C197.572 112.846 197.342 113.786 197.342 114.827V116.899H194.859V119.771H197.342V131.869H200.907V119.771H206.194V127.459C206.194 130.626 207.688 132.23 210.633 132.23C211.117 132.23 211.627 132.174 212.147 132.063C212.676 131.948 213.037 131.835 213.249 131.713L213.296 131.685V128.787L213.151 128.883C212.958 129.012 212.717 129.117 212.434 129.195C212.151 129.275 211.914 129.315 211.73 129.315C211.04 129.315 210.53 129.129 210.213 128.762C209.892 128.392 209.73 127.744 209.73 126.839V119.771H213.296ZM186.898 129.316C185.604 129.316 184.584 128.886 183.865 128.041C183.142 127.192 182.776 125.981 182.776 124.442C182.776 122.855 183.142 121.613 183.866 120.748C184.585 119.89 185.595 119.454 186.869 119.454C188.105 119.454 189.089 119.87 189.794 120.692C190.502 121.517 190.862 122.75 190.862 124.356C190.862 125.981 190.524 127.23 189.857 128.065C189.195 128.894 188.2 129.316 186.898 129.316ZM181.23 118.688C182.628 117.262 184.588 116.538 187.057 116.538C189.382 116.538 191.227 117.23 192.538 118.595C193.848 119.96 194.513 121.859 194.513 124.24C194.513 126.65 193.805 128.605 192.408 130.05C191.01 131.497 189.089 132.23 186.696 132.23C184.399 132.23 182.543 131.534 181.179 130.16C179.816 128.786 179.124 126.901 179.124 124.557C179.124 122.09 179.832 120.115 181.23 118.688ZM173.377 116.538C171.697 116.538 170.308 116.968 169.247 117.815C168.18 118.667 167.638 119.784 167.638 121.136C167.638 121.839 167.755 122.463 167.985 122.993C168.217 123.524 168.575 123.992 169.051 124.384C169.523 124.774 170.252 125.181 171.217 125.596C172.029 125.93 172.635 126.213 173.019 126.436C173.395 126.654 173.662 126.874 173.813 127.087C173.959 127.296 174.034 127.583 174.034 127.936C174.034 128.942 173.28 129.431 171.731 129.431C171.156 129.431 170.5 129.311 169.782 129.074C169.069 128.841 168.396 128.5 167.786 128.062L167.638 127.956V131.388L167.692 131.414C168.197 131.646 168.833 131.843 169.582 131.997C170.33 132.152 171.01 132.231 171.601 132.231C173.423 132.231 174.89 131.799 175.961 130.947C177.038 130.089 177.584 128.946 177.584 127.547C177.584 126.538 177.29 125.673 176.711 124.975C176.135 124.282 175.137 123.647 173.744 123.085C172.634 122.64 171.923 122.27 171.629 121.986C171.347 121.712 171.203 121.324 171.203 120.833C171.203 120.398 171.38 120.049 171.744 119.766C172.111 119.482 172.621 119.338 173.261 119.338C173.855 119.338 174.463 119.432 175.067 119.616C175.671 119.8 176.201 120.046 176.644 120.347L176.79 120.447V117.191L176.734 117.167C176.325 116.992 175.787 116.842 175.133 116.72C174.481 116.599 173.89 116.538 173.377 116.538ZM155.312 128.041C156.031 128.886 157.052 129.316 158.345 129.316C159.647 129.316 160.642 128.894 161.304 128.065C161.971 127.23 162.309 125.981 162.309 124.356C162.309 122.75 161.95 121.517 161.241 120.692C160.536 119.87 159.552 119.454 158.316 119.454C157.042 119.454 156.032 119.89 155.313 120.748C154.589 121.613 154.223 122.855 154.223 124.442C154.223 125.981 154.589 127.192 155.312 128.041ZM158.504 116.538C156.035 116.538 154.074 117.262 152.677 118.688C151.28 120.115 150.571 122.09 150.571 124.557C150.571 126.902 151.263 128.786 152.627 130.16C153.991 131.534 155.847 132.23 158.143 132.23C160.535 132.23 162.458 131.497 163.855 130.05C165.252 128.605 165.96 126.65 165.96 124.24C165.96 121.859 165.296 119.96 163.985 118.595C162.673 117.23 160.829 116.538 158.504 116.538ZM145.16 116.899V119.492H145.197C145.526 118.65 145.956 117.976 146.552 117.484C147.23 116.924 148.022 116.639 148.907 116.639C149.494 116.639 149.958 116.71 150.286 116.849L150.343 116.874V120.424L150.195 120.316C150.032 120.199 149.755 120.087 149.374 119.984C148.988 119.881 148.632 119.829 148.315 119.829C147.379 119.829 146.613 120.233 146.038 121.032C145.455 121.839 145.16 122.909 145.16 124.211V131.869H141.638V116.899H145.16ZM135.332 116.538C133.717 116.538 132.276 116.885 131.05 117.568C129.822 118.252 128.872 119.229 128.226 120.472C127.582 121.712 127.256 123.159 127.256 124.774C127.256 126.189 127.572 127.487 128.199 128.631C128.825 129.776 129.711 130.673 130.834 131.295C131.954 131.916 133.249 132.23 134.683 132.23C136.357 132.23 137.786 131.896 138.931 131.236L138.977 131.21V127.983L138.829 128.091C138.311 128.469 137.731 128.771 137.107 128.989C136.484 129.206 135.917 129.316 135.419 129.316C134.038 129.316 132.928 128.883 132.123 128.031C131.316 127.177 130.907 125.979 130.907 124.471C130.907 122.953 131.334 121.724 132.175 120.817C133.013 119.912 134.124 119.454 135.477 119.454C136.635 119.454 137.763 119.846 138.83 120.62L138.977 120.727V117.328L138.93 117.301C138.528 117.076 137.981 116.89 137.301 116.75C136.624 116.609 135.961 116.538 135.332 116.538ZM121.309 116.899H124.831V131.869H121.309V116.899ZM123.106 110.522C122.526 110.522 122.021 110.719 121.606 111.11C121.188 111.502 120.977 111.996 120.977 112.579C120.977 113.152 121.186 113.637 121.599 114.018C122.009 114.399 122.517 114.592 123.106 114.592C123.695 114.592 124.204 114.399 124.62 114.019C125.038 113.637 125.25 113.152 125.25 112.579C125.25 112.016 125.043 111.528 124.637 111.126C124.231 110.725 123.715 110.522 123.106 110.522ZM114.32 131.869V115.795H114.204L107.826 131.869H105.278L98.7991 115.793H98.6832V131.869H95.306V110.98H100.482L106.618 126.496L112.94 110.98H117.914V131.869H114.32ZM68.2905 120.566H84.8557V104H68.2905V120.566ZM66.565 138.862H50V122.297H66.565V138.862ZM68.2905 138.862H84.8557V122.297H68.2905V138.862Z" fill="#7B7B7B"/>
    </g>
    <defs>
        <clipPath id="clip0_0_907">
            <rect width="264" height="242" fill="white"/>
        </clipPath>
    </defs>
</svg>
