<svg width="264" height="242" viewBox="0 0 264 242" fill="none" xmlns="http://www.w3.org/2000/svg">
    <g clip-path="url(#clip0_0_960)">
        <rect width="264" height="242" fill="#F7F7F7"/>
        <path fill-rule="evenodd" clip-rule="evenodd" d="M128.002 133.576L134.21 116.369C134.715 114.976 134.745 112.464 133.354 111.09C131.959 109.709 130.296 109 127.226 109C124.157 108.998 121.66 109.809 119.66 110.598C118.582 111.016 116.986 111.848 115.179 112.944C115.004 112.249 114.681 111.593 114.173 111.09C112.78 109.709 111.113 109 108.049 109C104.975 108.998 102.483 109.809 100.479 110.598C99.4054 111.016 97.8063 111.848 95.994 112.944C95.8204 112.249 95.505 111.593 94.9942 111.09C93.599 109.709 91.9407 109 88.8658 109L80 133.576H89.6416L94.078 121.286C94.8753 119.056 97.0686 116.934 98.266 116.004C99.7973 114.819 106.627 112.927 104.766 118.09L99.1822 133.576H108.825L113.256 121.284C114.063 119.056 116.246 116.934 117.45 116.004C118.974 114.819 125.807 112.927 123.945 118.09L118.359 133.576H128.002ZM141.895 133.576C138.324 133.576 134.837 133.222 131.456 132.563L132.676 129.168C135.664 129.72 138.747 130.009 141.895 130.009C145.127 130.009 147.479 129.283 147.729 127.062C147.853 126.006 146.862 125.244 145.053 124.236C144.211 123.765 143.422 123.39 142.661 123.029L142.661 123.029C141.557 122.504 140.513 122.007 139.451 121.287C137.649 120.071 136.872 118.158 137.482 116.128C138.186 113.753 139.833 112.382 142.337 111.086C145.281 109.568 147.608 109 153.273 109C156.85 109 160.338 109.35 163.712 110.006L162.496 113.403C159.506 112.849 156.422 112.564 153.273 112.564C150.042 112.564 147.695 113.291 147.439 115.511C147.321 116.572 148.306 117.33 150.114 118.339C150.957 118.809 151.747 119.184 152.508 119.545L152.509 119.545L152.509 119.546C153.615 120.071 154.661 120.567 155.724 121.287C157.525 122.503 158.3 124.419 157.696 126.449C156.984 128.817 155.334 130.187 152.831 131.486C149.892 133.002 147.562 133.576 141.895 133.576ZM175.376 115.018L168.71 133.576H159.104L165.406 116.026C170.39 115.018 175.376 115.018 175.376 115.018ZM166.293 113.57L167.57 110.007C172.556 109 177.536 109 177.536 109L176.257 112.564C176.257 112.564 171.303 112.564 166.293 113.57ZM180.608 110.919C180.608 111.983 181.466 112.84 182.532 112.84C183.591 112.84 184.448 111.983 184.448 110.919C184.448 109.858 183.591 109 182.532 109C181.466 109 180.608 109.858 180.608 110.919ZM180.916 110.919C180.916 110.02 181.636 109.279 182.532 109.279C183.423 109.279 184.15 110.02 184.15 110.919C184.15 111.824 183.423 112.558 182.532 112.558C181.636 112.558 180.916 111.824 180.916 110.919ZM182.512 111.113L182.998 111.971H183.34L182.835 111.076C183.09 110.993 183.281 110.805 183.281 110.497C183.281 110.141 182.984 109.865 182.618 109.865H181.905V111.971H182.193V111.113H182.512ZM182.193 110.124H182.585C182.823 110.124 182.984 110.284 182.984 110.497C182.984 110.703 182.823 110.859 182.585 110.859H182.193V110.124Z" fill="#7B7B7B"/>
    </g>
    <defs>
        <clipPath id="clip0_0_960">
            <rect width="264" height="242" fill="white"/>
        </clipPath>
    </defs>
</svg>
