<svg width="264" height="242" viewBox="0 0 264 242" fill="none" xmlns="http://www.w3.org/2000/svg">
    <g clip-path="url(#clip0_0_897)">
        <rect width="264" height="242" fill="#F7F7F7"/>
        <path fill-rule="evenodd" clip-rule="evenodd" d="M183.925 138.521C185.93 138.715 187.935 138.924 189.935 139.139L194.35 128.256L198.546 140.143C200.7 140.413 202.852 140.695 204.998 140.99L197.64 120.145L205 102.001H198.767L198.702 102.091L194.726 111.892L191.235 102.003H185.081L191.435 120.004L183.925 138.521H183.925ZM179.27 138.095V102.001H173.118V137.588C175.17 137.746 177.223 137.916 179.27 138.094M133.055 136.076C134.716 136.076 136.375 136.089 138.031 136.102V122.842H145.422V117.195H138.031V107.655H146.543V102.001H131.855V136.081C132.254 136.081 132.655 136.075 133.055 136.076ZM113.954 136.421C116.003 136.349 118.055 136.287 120.109 136.237V107.656H125.86V102.003H108.203V107.656H113.955V136.421H113.954ZM66.9017 140.227V118.724L74.1863 139.359C76.4264 139.108 78.67 138.871 80.9198 138.648V102.002H75.0167V124.276L67.1561 102.002H61V141H61.037C62.9872 140.731 64.9442 140.475 66.9017 140.227ZM102.271 107.654V102.002H87.5813V138.037C92.4687 137.616 97.3617 137.263 102.259 136.978V131.32C99.4192 131.485 96.5853 131.675 93.758 131.886V122.845H101.149V117.195H93.758V107.654H102.271ZM158.736 131.05V102H152.557V136.442C157.472 136.622 162.368 136.873 167.248 137.19V131.528C164.416 131.346 161.579 131.187 158.736 131.049" fill="#7B7B7B"/>
    </g>
    <defs>
        <clipPath id="clip0_0_897">
            <rect width="264" height="242" fill="white"/>
        </clipPath>
    </defs>
</svg>
