<svg width="72" height="72" viewBox="0 0 72 72" fill="none" xmlns="http://www.w3.org/2000/svg">
    <g clip-path="url(#clip0_0_1566)">
        <rect x="1" y="1" width="70" height="70" rx="15" stroke="#E7E5EA" stroke-width="2"/>
        <path fill-rule="evenodd" clip-rule="evenodd" d="M30.5677 27.2983C26.831 28.428 25.1491 32.2937 26.4075 35.9646C27.0362 37.6668 28.0528 39.1875 29.3861 40.4331C29.7576 40.7719 30.2029 41.1429 30.7229 41.547L31.2678 41.9621C31.3628 42.0332 31.4598 42.1052 31.559 42.1781L32.179 42.6267L32.8493 43.098L33.5701 43.5921L34.3416 44.1093C35.3467 44.776 36.6533 44.7761 37.6584 44.1095L38.0457 43.8513C38.3033 43.6786 38.5524 43.5099 38.7931 43.345L39.4895 42.8619C39.6014 42.7833 39.7111 42.7057 39.8187 42.629L40.439 42.1804C40.5381 42.1075 40.6352 42.0356 40.7301 41.9646L41.2746 41.5501L41.7686 41.1582C42.0812 40.9044 42.3603 40.6655 42.6062 40.4413C43.9484 39.1874 44.965 37.6667 45.5857 35.987C46.8514 32.2956 45.1627 28.4283 41.4251 27.2984L41.1574 27.2235C39.4557 26.784 37.6479 27.0023 36.1216 27.8187L35.996 27.888L35.8716 27.8185C34.2649 26.958 32.3455 26.7613 30.5677 27.2983ZM35.4206 29.8856C35.7657 30.1286 36.2262 30.1288 36.5714 29.8861C37.7954 29.0256 39.3888 28.7737 40.8473 29.2131C43.442 29.9975 44.6089 32.6698 43.7018 35.3161C43.1976 36.6794 42.3566 37.9376 41.2497 38.9717C40.9172 39.2749 40.5061 39.6161 40.0177 39.9943L39.5034 40.3848C39.4134 40.4519 39.3212 40.5201 39.2269 40.5892L38.6356 41.0163L37.9932 41.4673L37.3 41.9422L36.5509 42.4441C36.2179 42.665 35.7823 42.6649 35.4473 42.4427L35.0689 42.1904L34.3501 41.7035L33.6819 41.2401L33.0644 40.8005C32.8671 40.658 32.6782 40.5194 32.4978 40.3848L31.9822 39.9931C31.6555 39.74 31.3629 39.5031 31.1045 39.2823L30.7426 38.9635C29.6446 37.9376 28.8035 36.6795 28.2915 35.2937C27.3912 32.6669 28.553 29.9968 31.1462 29.2128C32.6039 28.7725 34.1974 29.0244 35.4206 29.8856Z" fill="#391484"/>
        <g opacity="0.5">
            <path fill-rule="evenodd" clip-rule="evenodd" d="M38.0305 31.7549C38.1659 31.2195 38.7096 30.8951 39.2451 31.0305C40.7385 31.408 41.8483 32.5179 41.9944 33.8944C42.0527 34.4436 41.6547 34.9361 41.1055 34.9944C40.5956 35.0485 40.1345 34.7093 40.0246 34.2208L40.0056 34.1055C39.9544 33.6237 39.4847 33.154 38.7549 32.9695C38.2195 32.8341 37.8951 32.2903 38.0305 31.7549Z" fill="#391484"/>
        </g>
    </g>
    <defs>
        <clipPath id="clip0_0_1566">
            <rect width="72" height="72" fill="white"/>
        </clipPath>
    </defs>
</svg>
