<svg width="72" height="72" viewBox="0 0 72 72" fill="none" xmlns="http://www.w3.org/2000/svg">
    <g clip-path="url(#clip0_0_1662)">
        <g opacity="0.05">
            <rect width="72" height="72" rx="16" fill="#391484"/>
        </g>
        <path fill-rule="evenodd" clip-rule="evenodd" d="M40 27H32C29.2386 27 27 29.2386 27 32V40C27 42.7614 29.2386 45 32 45H40C42.7614 45 45 42.7614 45 40V32C45 29.2386 42.7614 27 40 27ZM32 29H40C41.6569 29 43 30.3431 43 32V40C43 41.6569 41.6569 43 40 43H32C30.3431 43 29 41.6569 29 40V32C29 30.3431 30.3431 29 32 29Z" fill="#391484"/>
        <g opacity="0.5">
            <path fill-rule="evenodd" clip-rule="evenodd" d="M36 31C35.4477 31 35 31.4477 35 32C35 32.5523 35.4477 33 36 33C36.5523 33 37 32.5523 37 32C37 31.4477 36.5523 31 36 31ZM36 35C35.4477 35 35 35.4477 35 36V40C35 40.5523 35.4477 41 36 41C36.5523 41 37 40.5523 37 40V36C37 35.4477 36.5523 35 36 35Z" fill="#391484"/>
        </g>
    </g>
    <defs>
        <clipPath id="clip0_0_1662">
            <rect width="72" height="72" fill="white"/>
        </clipPath>
    </defs>
</svg>
