<svg width="10" height="11" viewBox="0 0 10 11" fill="none" xmlns="http://www.w3.org/2000/svg">
  <path
    d="M9.64181 4.13829L6.66642 3.70586L5.33634 1.00938C5.30001 0.935551 5.24024 0.875786 5.16642 0.839457C4.98126 0.748051 4.75626 0.824223 4.66368 1.00938L3.3336 3.70586L0.358214 4.13829C0.276182 4.15 0.201182 4.18868 0.143761 4.24727C0.0743407 4.31862 0.0360871 4.41461 0.0374056 4.51416C0.038724 4.6137 0.0795065 4.70864 0.150792 4.77813L2.30353 6.87696L1.79493 9.84063C1.78301 9.90957 1.79063 9.98048 1.81695 10.0453C1.84327 10.1101 1.88723 10.1663 1.94384 10.2074C2.00045 10.2485 2.06745 10.2729 2.13724 10.2779C2.20702 10.2829 2.27681 10.2682 2.33868 10.2356L5.00001 8.83633L7.66134 10.2356C7.73399 10.2742 7.81837 10.2871 7.89923 10.2731C8.10314 10.2379 8.24024 10.0445 8.20509 9.84063L7.69649 6.87696L9.84923 4.77813C9.90782 4.72071 9.94649 4.64571 9.95821 4.56368C9.98985 4.3586 9.84688 4.16875 9.64181 4.13829Z"
    fill="#FF6500"/>
</svg>
