<svg className="testimonial-shape absolute top-[30px] md:top-[95px] left-[-50px]"
     version="1.1" xmlns="http://www.w3.org/2000/svg"
     xmlns:xlink="http://www.w3.org/1999/xlink" x="0px" y="0px"
     viewBox="0 0 52 52" width="94" height="97">
  <path className="st0"
        d="M2.96,30.53c-4.57,5.96,3.81,15.3,11.32,18.61c7.49,3.3,17.32,0.85,24.15-3.06  c13.78-7.89,15.38-21.63,6.69-34.15C39.86,4.34,29.33-3.09,20.4,3.8c-5.04,3.88-9.25,13.06-6.87,19.32  c1.57,4.13,11.66,10.45,14.59,4.17c2.45-5.24-7.77-5.94-8.2-10.79C19.3,9.5,28.7,8.86,32.96,10.95c8.35,4.08,9.53,19.1,2.7,25.09  c-5.01,4.39-16.54,4.55-22.15,0.92C11.34,35.55,7.83,26.66,2.96,30.53z">
  </path>
</svg>
