<svg width="33" height="32" viewBox="0 0 33 32" fill="none" xmlns="http://www.w3.org/2000/svg">
    <rect x="0.959473" width="32" height="32" fill="#F7F7F7"/>
    <path fill-rule="evenodd" clip-rule="evenodd" d="M23.5006 9.45882C23.0301 9.03529 22.5595 8.65882 21.9477 8.42353C21.3359 8.18824 20.7242 8.04706 19.9242 8.04706C19.1242 8 18.8889 8 16.9595 8C15.0301 8 14.7948 8 13.9948 8.04706C13.1948 8.09412 12.583 8.18824 11.9712 8.42353C11.3595 8.65882 10.8418 8.98824 10.4183 9.45882C9.99477 9.92941 9.6183 10.4 9.383 11.0118C9.14771 11.6235 9.00653 12.2353 9.00653 13.0353C8.95947 13.8353 8.95947 14.0706 8.95947 16C8.95947 17.9294 8.95947 18.1647 9.00653 18.9647C9.05359 19.7647 9.14771 20.3765 9.383 20.9882C9.6183 21.6 9.94771 22.1176 10.4183 22.5412C10.8889 22.9647 11.3595 23.3412 11.9712 23.5765C12.583 23.8118 13.1948 23.9529 13.9948 23.9529C14.7948 24 15.0301 24 16.9595 24C18.8889 24 19.1242 24 19.9242 23.9529C20.7242 23.9059 21.3359 23.8118 21.9477 23.5765C22.5595 23.3412 23.0771 23.0118 23.5006 22.5412C23.9242 22.0706 24.3006 21.6 24.5359 20.9882C24.7712 20.3765 24.9124 19.7647 24.9124 18.9647C24.9595 18.1647 24.9595 17.9294 24.9595 16C24.9595 14.0706 24.9595 13.8353 24.9124 13.0353C24.8654 12.2353 24.7712 11.6235 24.5359 11.0118C24.3006 10.4 23.9712 9.88235 23.5006 9.45882ZM23.0301 18.8706C22.983 19.6235 22.8889 20 22.7477 20.2824C22.6065 20.6588 22.4183 20.9412 22.1359 21.2235C21.8536 21.5059 21.5712 21.6941 21.1948 21.8353L21.1385 21.8542C20.8619 21.9474 20.487 22.0736 19.783 22.1176H16.9595C15.0771 22.1176 14.8418 22.1176 14.0889 22.0706C13.3359 22.0235 12.9595 21.9294 12.6771 21.7882C12.3006 21.6471 12.0183 21.4588 11.7359 21.1765C11.4536 20.8941 11.2654 20.6118 11.1242 20.2353L11.1053 20.179C11.0121 19.9024 10.8858 19.5275 10.8418 18.8235V16C10.8418 14.1176 10.8418 13.8824 10.8889 13.1294C10.9359 12.3765 11.0301 12 11.1712 11.7176C11.3124 11.3412 11.5006 11.0588 11.783 10.7765C12.0654 10.4941 12.3477 10.3059 12.7242 10.1647L12.7805 10.1458C13.057 10.0526 13.4319 9.92635 14.1359 9.88235H16.9595C18.8418 9.88235 19.0771 9.88235 19.8301 9.92941C20.583 9.97647 20.9595 10.0706 21.2418 10.2118C21.6183 10.3529 21.9006 10.5412 22.183 10.8235C22.4654 11.1059 22.6536 11.3882 22.7948 11.7647L22.8137 11.821C22.9068 12.0976 23.0331 12.4725 23.0771 13.1765V16C23.0771 17.8824 23.0771 18.1176 23.0301 18.8706ZM20.9595 12.8941C21.4533 12.8941 21.8536 12.4938 21.8536 12C21.8536 11.5062 21.4533 11.1059 20.9595 11.1059C20.4657 11.1059 20.0654 11.5062 20.0654 12C20.0654 12.4938 20.4657 12.8941 20.9595 12.8941ZM12.8183 16C12.8183 13.6941 14.6536 11.8588 16.9595 11.8588C19.2654 11.8588 21.1006 13.6941 21.1006 16C21.1006 18.3059 19.2654 20.1412 16.9595 20.1412C14.6536 20.1412 12.8183 18.3059 12.8183 16ZM14.7006 16C14.7006 17.2235 15.7359 18.2588 16.9595 18.2588C18.183 18.2588 19.2183 17.2235 19.2183 16C19.2183 14.7765 18.183 13.7412 16.9595 13.7412C15.7359 13.7412 14.7006 14.7765 14.7006 16Z" fill="black"/>
</svg>
