<svg width="33" height="32" viewBox="0 0 33 32" fill="none" xmlns="http://www.w3.org/2000/svg">
    <rect x="0.959473" width="32" height="32" fill="#F7F7F7"/>
    <path fill-rule="evenodd" clip-rule="evenodd" d="M24.9595 11.55C24.3595 11.8 23.7595 12 23.0595 12.05C23.7595 11.65 24.2595 11 24.5095 10.25C23.8595 10.65 23.1595 10.9 22.4095 11.05C21.8095 10.4 20.9595 10 20.0595 10C18.2595 10 16.7595 11.45 16.7595 13.3C16.7595 13.55 16.8095 13.8 16.8595 14.05C14.1095 13.9 11.7095 12.6 10.1095 10.6C9.80947 11.1 9.65947 11.65 9.65947 12.25C9.65947 13.4 10.2595 14.4 11.1095 15C10.5595 15 10.0595 14.85 9.60947 14.6V14.65C9.60947 16.25 10.7595 17.55 12.2595 17.85C11.9595 17.9 11.7095 17.95 11.4095 17.95C11.2095 17.95 11.0095 17.95 10.8095 17.9C11.2095 19.2 12.4595 20.15 13.8595 20.2C12.7595 21.1 11.3095 21.6 9.75947 21.6C9.50947 21.6 9.20947 21.6 8.95947 21.55C10.4095 22.5 12.1595 23 14.0095 23C20.0595 23 23.3595 18 23.3595 13.65C23.3595 13.5 23.3595 13.35 23.3595 13.25C23.9595 12.8 24.5095 12.2 24.9595 11.55Z" fill="black"/>
</svg>
