<svg
  width="14" height="12" viewBox="0 0 14 12" fill="currentColor"
  xmlns="http://www.w3.org/2000/svg">
  <path
    d="M13.6667 1.93957C13.1669 2.15783 12.6376 2.30093 12.096 2.36424C12.6645 2.0304 13.092 1.50098 13.2987 0.874908C12.76 1.18846 12.1725 1.40931 11.5607 1.52824C11.303 1.25838 10.9931 1.04383 10.6498 0.897693C10.3065 0.751554 9.93709 0.676884 9.564 0.678241C8.05333 0.678241 6.82866 1.88491 6.82866 3.37157C6.82866 3.58224 6.85266 3.78824 6.89933 3.98491C5.81571 3.93337 4.75474 3.65651 3.78411 3.172C2.81348 2.68749 1.9545 2.00596 1.26199 1.17091C1.01921 1.58051 0.891605 2.04809 0.892662 2.52424C0.893126 2.96955 1.00455 3.40773 1.21685 3.79917C1.42916 4.19061 1.73566 4.52298 2.10866 4.76624C1.67498 4.75224 1.25068 4.63646 0.869995 4.42824V4.46157C0.869995 5.76691 1.81333 6.85557 3.06333 7.10357C2.8284 7.16591 2.58638 7.1975 2.34333 7.19757C2.16666 7.19757 1.99533 7.18091 1.828 7.14757C2.00672 7.68619 2.34873 8.15578 2.80654 8.49113C3.26435 8.82648 3.81522 9.01095 4.38266 9.01891C3.40937 9.7686 2.21454 10.1736 0.985995 10.1702C0.764662 10.1702 0.547328 10.1569 0.333328 10.1329C1.5875 10.9267 3.04172 11.3471 4.52599 11.3449C9.55733 11.3449 12.308 7.24024 12.308 3.68091L12.2987 3.33224C12.8352 2.95469 13.2988 2.4828 13.6667 1.93957Z"
    fill="currentColor"/>
</svg>
