<svg width="24" height="24" viewBox="0 0 24 24" fill="none" xmlns="http://www.w3.org/2000/svg">
    <path fill-rule="evenodd" clip-rule="evenodd" d="M12.001 14C11.6554 13.9997 11.3184 14.0039 10.9902 14.0128L10.3456 14.037C10.0293 14.0521 9.72198 14.0721 9.42388 14.0968L8.84005 14.1527C5.12612 14.5578 2.99991 15.7832 2.99991 17.9973C2.99991 20.1155 4.83478 21.3164 8.22282 21.778L8.7858 21.8464L9.37575 21.9021C9.57686 21.9185 9.78242 21.9328 9.99239 21.9451L10.6355 21.9756C10.7448 21.9797 10.8553 21.9832 10.9668 21.9862L11.649 21.9984L11.9998 22C12.2359 22 12.4677 21.9981 12.6952 21.9941L13.3646 21.9762C13.474 21.9721 13.5823 21.9676 13.6895 21.9626L14.3196 21.9261C14.5251 21.9119 14.7263 21.8955 14.923 21.8771L15.4996 21.8154C19.0655 21.3839 20.9993 20.1773 20.9997 18.0002C21.0001 15.6165 18.5453 14.3844 14.281 14.0775L13.6595 14.0399C13.2371 14.019 12.7986 14.0064 12.3445 14.0019L12.001 14ZM11.999 16C16.6024 16.0047 18.9998 16.8754 18.9997 17.9998C18.9995 18.6393 18.3163 19.1807 16.9127 19.5383L16.512 19.6312C16.0236 19.7341 15.4619 19.8176 14.8258 19.879L14.2623 19.9261C14.1653 19.933 14.0668 19.9395 13.9668 19.9455L13.3482 19.9756C13.242 19.9796 13.1343 19.9832 13.0251 19.9862L12.3511 19.9985L12.0002 20C11.7632 19.9999 11.5325 19.9978 11.3079 19.9936L10.6526 19.975C10.5465 19.9709 10.4419 19.9664 10.3388 19.9613L9.73876 19.9251L9.17528 19.8777C6.3582 19.6045 4.99991 18.8971 4.99991 17.9973C4.99991 17.0732 6.62016 16.3178 9.73866 16.079L10.3409 16.0403C10.8574 16.0133 11.4102 15.9994 11.999 16Z" fill="#391484"/>
    <g opacity="0.5">
        <path fill-rule="evenodd" clip-rule="evenodd" d="M12 2C9.23858 2 7 4.23858 7 7C7 9.76142 9.23858 12 12 12C14.7614 12 17 9.76142 17 7C17 4.23858 14.7614 2 12 2ZM12 4C13.6569 4 15 5.34315 15 7C15 8.65685 13.6569 10 12 10C10.3431 10 9 8.65685 9 7C9 5.34315 10.3431 4 12 4Z" fill="#391484"/>
    </g>
</svg>
