<svg width="48" height="48" viewBox="0 0 48 48" fill="none" xmlns="http://www.w3.org/2000/svg">
    <path fill-rule="evenodd" clip-rule="evenodd" d="M33.8003 11.9999C32.8754 7.43605 28.8474 3.99991 24.017 3.99991C21.3695 3.98873 18.8189 5.038 16.9375 6.91535C15.5357 8.31417 14.5915 10.0868 14.2017 11.9999H13.8975C10.0132 11.9999 6.72748 14.7506 5.81228 19.4857L4.24513 31.12C2.8543 40.0072 7.29012 43.9999 15.683 43.9999H32.2987C40.083 43.9999 44.8439 39.5278 43.8734 31.5908L42.261 19.5988C41.1593 14.7705 37.9626 11.9999 34.1572 11.9999H33.8003ZM29.6595 11.9999C28.8377 9.66913 26.6196 7.9999 24.0086 7.99989C22.4182 7.99319 20.8904 8.62166 19.7629 9.74681C19.1207 10.3876 18.6385 11.1594 18.3422 11.9999H29.6595ZM16 15.9999L13.8976 15.9999C11.9416 15.9999 10.2933 17.3797 9.75812 20.1317L8.20327 31.6956C7.22864 37.9254 9.53337 39.9999 15.683 39.9999H32.2987C37.9523 39.9999 40.6959 37.3338 39.8452 31.6529L38.3297 20.3135C37.6642 17.4197 36.026 15.9999 34.1572 15.9999L32 15.9999H16Z" fill="#391484"/>
    <g opacity="0.5">
        <path fill-rule="evenodd" clip-rule="evenodd" d="M18 24C19.1046 24 20 23.1046 20 22C20 20.8954 19.1046 20 18 20C16.8954 20 16 20.8954 16 22C16 23.1046 16.8954 24 18 24ZM30 24C31.1046 24 32 23.1046 32 22C32 20.8954 31.1046 20 30 20C28.8954 20 28 20.8954 28 22C28 23.1046 28.8954 24 30 24Z" fill="#391484"/>
    </g>
</svg>
