<svg width="48" height="48" viewBox="0 0 48 48" fill="none" xmlns="http://www.w3.org/2000/svg">
    <path fill-rule="evenodd" clip-rule="evenodd" d="M24.002 28C23.3108 27.9993 22.6368 28.0078 21.9804 28.0257L20.6913 28.0739C20.0587 28.1043 19.444 28.1441 18.8478 28.1936L17.6801 28.3053C10.2523 29.1155 5.99985 31.5665 5.99985 35.9946C5.99985 40.231 9.66959 42.6328 16.4457 43.5561L17.5716 43.6929L18.7515 43.8041C19.1537 43.837 19.5649 43.8656 19.9848 43.8901L21.2709 43.9512C21.4897 43.9593 21.7106 43.9664 21.9337 43.9725L23.2981 43.9968L23.9996 44C24.4718 44.0001 24.9354 43.9962 25.3904 43.9882L26.7293 43.9523C26.9481 43.9443 27.1647 43.9352 27.3791 43.9251L28.6391 43.8522C29.0503 43.8237 29.4526 43.7911 29.846 43.7542L30.9991 43.6308C38.1311 42.7678 41.9986 40.3545 41.9993 36.0003C42.0001 31.233 37.0906 28.7689 28.562 28.1549L27.3191 28.0798C26.4743 28.038 25.5972 28.0128 24.689 28.0038L24.002 28ZM23.998 32.0001C33.2048 32.0093 37.9997 33.7508 37.9993 35.9997C37.9991 37.2786 36.6327 38.3614 33.8254 39.0766L33.024 39.2624C32.0472 39.4682 30.9239 39.6353 29.6516 39.758L28.5246 39.8523C28.3306 39.8661 28.1336 39.879 27.9336 39.891L26.6964 39.9512C26.4841 39.9593 26.2687 39.9664 26.0502 39.9725L24.7022 39.997L24.0004 40C23.5265 39.9999 23.065 39.9956 22.6159 39.9872L21.3053 39.9501C21.0931 39.9419 20.8839 39.9327 20.6777 39.9226L19.4776 39.8503L18.3506 39.7555C12.7164 39.2091 9.99985 37.7942 9.99985 35.9947C9.99985 34.1464 13.2404 32.6356 19.4774 32.1579L20.6818 32.0806C21.7148 32.0266 22.8204 31.9989 23.998 32.0001Z" fill="white"/>
    <g opacity="0.5">
        <path fill-rule="evenodd" clip-rule="evenodd" d="M24 4C18.4772 4 14 8.47715 14 14C14 19.5228 18.4772 24 24 24C29.5228 24 34 19.5228 34 14C34 8.47715 29.5228 4 24 4ZM24 8C27.3137 8 30 10.6863 30 14C30 17.3137 27.3137 20 24 20C20.6863 20 18 17.3137 18 14C18 10.6863 20.6863 8 24 8Z" fill="white"/>
    </g>
</svg>
