<svg width="48" height="48" viewBox="0 0 48 48" fill="none" xmlns="http://www.w3.org/2000/svg">
    <path fill-rule="evenodd" clip-rule="evenodd" d="M7.82142 26.008C8.92158 25.9094 9.89339 26.7213 9.99201 27.8214C10.0906 28.9216 9.27873 29.8934 8.17857 29.992C7.60885 30.0431 7.0476 30.1345 6.46801 30.2743L5.8813 30.4306C4.88565 30.6839 4.28551 31.0732 4.12326 31.5167C3.95882 31.9639 3.95882 32.5142 4.12504 32.9674C4.21657 33.2183 4.81479 33.6652 6.06916 34.1195C7.10772 34.4957 7.64472 35.6425 7.26859 36.681C6.89246 37.7196 5.74563 38.2566 4.70708 37.8805C2.44979 37.063 0.953348 35.945 0.368455 34.3415C-0.122908 33.0019 -0.122908 31.4741 0.367897 30.1393C1.03684 28.311 2.53251 27.2477 4.41705 26.6856L4.82667 26.5727C5.80322 26.2871 6.80427 26.0992 7.82142 26.008ZM39.9451 26.0006L40.1786 26.008C40.9923 26.0809 41.7956 26.2158 42.5493 26.4035L43.1048 26.5541C45.2484 27.0995 46.914 28.1797 47.6335 30.1396C48.1221 31.4754 48.1221 33.0006 47.6334 34.3401C46.9193 36.2911 45.2828 37.3559 43.1283 37.9321C42.0612 38.2175 40.9648 37.5838 40.6795 36.5167C40.3941 35.4496 41.0278 34.3532 42.0949 34.0679C43.1177 33.7944 43.7161 33.405 43.8763 32.9672C44.0411 32.5155 44.0411 31.9626 43.8777 31.5157C43.7155 31.0737 43.1145 30.684 42.0501 30.4119C41.3253 30.1999 40.5809 30.0601 39.8214 29.992C38.7213 29.8934 37.9094 28.9216 38.008 27.8214C38.0996 26.7998 38.9441 26.0268 39.9451 26.0006ZM24 28C15.0371 28 10 30.5186 10 36C10 41.4814 15.0371 44 24 44C32.9628 44 38 41.4814 38 36C38 30.5186 32.9628 28 24 28ZM24 32C31.0371 32 34 33.4814 34 36C34 38.5186 31.0371 40 24 40C16.9628 40 14 38.5186 14 36C14 33.4814 16.9628 32 24 32Z" fill="#391484"/>
    <g opacity="0.5">
        <path fill-rule="evenodd" clip-rule="evenodd" d="M23.9999 4C18.4554 4 14 8.45496 14 13.9991C14 19.5447 18.4551 24 23.9999 24C29.5449 24 34 19.5447 34 13.9991C34 8.45493 29.5445 4 23.9999 4ZM23.9999 8C27.3355 8 30 10.6642 30 13.9991C30 17.3356 27.3357 20 23.9999 20C20.6643 20 18 17.3356 18 13.9991C18 10.6642 20.6645 8 23.9999 8ZM10 8C11.1046 8 12 8.89543 12 10C12 11.1046 11.1046 12 10 12C7.79146 12 6 13.7912 6 16C6 18.1084 7.6323 19.8363 9.70155 19.989L10 20C11.1046 20 12 20.8954 12 22C12 23.1046 11.1046 24 10 24C5.58243 24 2 20.418 2 16C2 11.582 5.58243 8 10 8ZM38 8C42.4176 8 46 11.582 46 16C46 20.418 42.4176 24 38 24C36.8954 24 36 23.1046 36 22C36 20.9743 36.7721 20.129 37.7668 20.0135L38 20C40.2086 20 42 18.2088 42 16C42 13.7912 40.2086 12 38 12C36.8954 12 36 11.1046 36 10C36 8.89543 36.8954 8 38 8Z" fill="#391484"/>
    </g>
</svg>
