<svg width="24" height="24" viewBox="0 0 24 24" fill="none" xmlns="http://www.w3.org/2000/svg">
    <path fill-rule="evenodd" clip-rule="evenodd" d="M12.001 14C11.6554 13.9996 11.3184 14.0039 10.9902 14.0128L10.3457 14.0369C10.0293 14.0521 9.72201 14.072 9.42391 14.0967L8.84008 14.1526C5.12615 14.5577 2.99994 15.7832 2.99994 17.9973C2.99994 20.1155 4.83481 21.3163 8.22285 21.778L8.78583 21.8464L9.37578 21.902C9.57689 21.9184 9.78245 21.9327 9.99242 21.945L10.6355 21.9755C10.7448 21.9796 10.8553 21.9831 10.9668 21.9862L11.649 21.9984L11.9998 21.9999C12.2359 22 12.4677 21.998 12.6952 21.9941L13.3646 21.9761C13.474 21.9721 13.5824 21.9675 13.6896 21.9625L14.3196 21.926C14.5252 21.9118 14.7263 21.8955 14.923 21.877L15.4996 21.8153C19.0655 21.3838 20.9993 20.1772 20.9997 18.0001C21.0001 15.6164 18.5453 14.3844 14.281 14.0774L13.6596 14.0398C13.2372 14.0189 12.7986 14.0063 12.3445 14.0018L12.001 14ZM11.999 16C16.6024 16.0046 18.9999 16.8753 18.9997 17.9998C18.9996 18.6392 18.3164 19.1806 16.9127 19.5382L16.512 19.6311C16.0236 19.734 15.462 19.8176 14.8258 19.8789L14.2623 19.9261C14.1653 19.933 14.0668 19.9394 13.9668 19.9454L13.3482 19.9755C13.2421 19.9796 13.1344 19.9831 13.0251 19.9862L12.3511 19.9984L12.0002 19.9999C11.7633 19.9999 11.5325 19.9977 11.308 19.9936L10.6527 19.975C10.5465 19.9709 10.4419 19.9663 10.3389 19.9612L9.73879 19.9251L9.17531 19.8777C6.35823 19.6045 4.99994 18.897 4.99994 17.9973C4.99994 17.0731 6.62019 16.3177 9.73869 16.0789L10.3409 16.0403C10.8574 16.0132 11.4102 15.9994 11.999 16Z" fill="#391484"/>
    <g opacity="0.5">
        <path fill-rule="evenodd" clip-rule="evenodd" d="M12 2C9.23858 2 7 4.23858 7 7C7 9.76142 9.23858 12 12 12C14.7614 12 17 9.76142 17 7C17 4.23858 14.7614 2 12 2ZM12 4C13.6569 4 15 5.34315 15 7C15 8.65685 13.6569 10 12 10C10.3431 10 9 8.65685 9 7C9 5.34315 10.3431 4 12 4Z" fill="#391484"/>
    </g>
</svg>
